<svg class="cnrs-data-manager-cnrs-logo" xmlns="http://www.w3.org/2000/svg"
     viewBox="0 0 767 752">

    <g transform="translate(0,752) scale(0.1,-0.1)"
       fill="#000000" stroke="none">
        <path d="M3335 7314 c-303 -18 -612 -80 -875 -176 -489 -179 -969 -513 -1381
-963 -467 -510 -686 -913 -776 -1430 -25 -144 -25 -613 0 -810 34 -263 111
-691 162 -896 164 -652 533 -1293 1035 -1799 505 -508 1060 -815 1655 -914
692 -116 1438 47 2113 460 596 365 1150 931 1527 1559 372 618 565 1301 541
1910 -32 820 -415 1508 -1126 2020 -744 536 -1541 893 -2235 999 -200 31 -488
49 -640 40z m-1350 -1968 c178 -48 322 -160 403 -314 48 -92 92 -247 92 -328
0 -45 -4 -56 -26 -73 -24 -19 -40 -21 -159 -21 l-133 0 -11 64 c-24 138 -71
236 -146 305 -67 62 -123 84 -226 89 -200 10 -343 -87 -427 -290 -100 -242
-119 -714 -41 -1028 56 -224 163 -359 323 -405 85 -25 213 -17 286 16 115 53
196 177 227 343 l16 86 132 0 c119 0 135 -2 159 -21 22 -17 26 -28 26 -73 0
-80 -43 -235 -92 -328 -78 -151 -205 -253 -388 -310 -67 -20 -94 -23 -245 -22
-157 0 -176 2 -250 27 -112 37 -199 91 -280 173 -192 195 -285 507 -285 962 0
686 205 1057 640 1158 75 18 325 12 405 -10z m1600 9 c201 -42 390 -203 474
-403 50 -119 51 -145 51 -1028 0 -875 0 -870 -45 -888 -9 -3 -72 -6 -141 -6
l-123 0 -3 873 -3 872 -23 58 c-33 80 -116 168 -199 209 -115 56 -265 50 -377
-16 -58 -34 -123 -107 -154 -174 l-27 -57 -3 -882 -2 -883 -130 0 c-122 0
-130 1 -157 24 l-28 24 0 1095 0 1095 24 26 c24 25 27 26 158 26 l133 0 0 -55
0 -56 61 42 c154 104 336 141 514 104z m1694 0 c67 -18 101 -48 101 -91 0 -24
-16 -53 -67 -119 -59 -74 -71 -86 -93 -82 -14 3 -52 10 -86 17 -146 28 -306
-44 -391 -177 -64 -101 -63 -78 -63 -1021 l0 -854 -131 4 c-129 3 -131 3 -155
31 l-24 28 0 1089 0 1089 24 28 c24 28 26 28 155 31 l130 4 3 -62 3 -62 45 35
c111 85 237 126 390 126 61 1 128 -5 159 -14z m953 0 c180 -38 364 -178 344
-261 -7 -28 -62 -91 -117 -135 l-39 -31 -51 45 c-63 56 -137 94 -208 107 -213
40 -398 -44 -457 -207 -7 -21 -13 -74 -13 -118 -1 -63 4 -90 23 -130 42 -92
108 -136 368 -249 258 -112 355 -171 446 -271 153 -168 196 -460 100 -684 -71
-167 -240 -301 -454 -363 -105 -30 -342 -32 -444 -4 -149 40 -295 140 -362
245 -48 76 -38 102 76 200 l58 50 25 -29 c41 -50 148 -129 214 -159 220 -102
510 -22 590 163 30 69 37 184 15 259 -34 117 -117 186 -349 287 -295 130 -404
194 -491 291 -56 63 -111 172 -125 253 -66 364 136 659 509 742 79 17 255 17
342 -1z"/>
    </g>
</svg>
